<svg width="28" height="28" viewBox="0 0 28 28" fill="none" xmlns="http://www.w3.org/2000/svg">
  <rect width="28" height="28" rx="8" fill="#3178C6"/>
  <path d="M8.2 10.1H19.8V12.1H15.3V22H12.7V12.1H8.2V10.1Z" fill="white"/>
  <path d="M20.5 22.2C18.4 22.2 16.9 21.2 16 19.8L18 18.6C18.6 19.5 19.3 20.1 20.5 20.1C21.5 20.1 22.1 19.6 22.1 18.9C22.1 18 21.4 17.7 20.1 17.1L19.4 16.8C17.4 16 16.1 15 16.1 12.8C16.1 10.8 17.6 9.4 20.1 9.4C21.9 9.4 23.2 10 24.1 11.6L22.2 12.8C21.8 12.1 21.3 11.7 20.1 11.7C19.2 11.7 18.6 12.2 18.6 12.8C18.6 13.6 19.2 13.9 20.6 14.5L21.3 14.8C23.7 15.8 24.9 16.9 24.9 19.1C24.9 21.5 23 22.2 20.5 22.2Z" fill="white"/>
</svg>
